# xmcd
#
# Track frame offsets: 
#        150
#        29012
#        50422
#        78801
#        102239
#        126264
#        158584
#        175830
#        200629
#        220602
#
# Disc length: 3416 seconds
#
# Revision: 22
# Processed by: cddbd v1.5.2PL0 Copyright (c) Steve Scherf et al.
# Submitted via: ExactAudioCopy v1.3
#
DISCID=800d560a
DTITLE=Everything But the Girl - Temperamental
DYEAR=1999
DGENRE=Electronic
TTITLE0=Five Fathoms
TTITLE1=Low Tide Of The Night
TTITLE2=Blame
TTITLE3=Hatfield 1980
TTITLE4=Temperamental
TTITLE5=Compression
TTITLE6=Downhill Racer
TTITLE7=Lullaby Of Clubland
TTITLE8=No Difference
TTITLE9=The Future Of The Future (Stay Gold), (With Deep Dish)
EXTD=YEAR: 1999 ID3G: 52
EXTT0=
EXTT1=
EXTT2=
EXTT3=
EXTT4=
EXTT5=
EXTT6=
EXTT7=
EXTT8=
EXTT9=
PLAYORDER=
